<svg width="128" height="128" viewBox="0 0 128 128" fill="none" xmlns="http://www.w3.org/2000/svg">
<rect width="128" height="128" rx="30" fill="#9DE093"/>
<rect x="15" y="10" width="98" height="54" rx="15" fill="black" fill-opacity="0.4"/>
<path d="M39.3422 25.7103H44.1778V20.8552L58.6844 20.8552V16H68.3556V20.8552L82.8622 20.8552V25.7103H87.6978V49.9862H92.5333V54.8414H97.3689V59.6965H102.204V93.6828H97.3689V108.248L92.5333 108.279V122.814H44.1778V108.248H39.3422V98.5379H34.5067V88.8276H29.6711V79.1172H24.8356V74.2621H20V59.6965H34.5067V64.5517H39.3422V25.7103Z" fill="white"/>
<path d="M39.3422 25.7103H44.1778V74.2621H39.3422V69.4069H34.5067V64.5517H39.3422V25.7103ZM97.3689 59.6965V93.6828H102.204V59.6965H97.3689ZM20 59.6965V74.2621H24.8356V64.5517H34.5067V59.6965H20ZM34.5067 88.8276V79.1172H29.6711V88.8276H34.5067ZM39.3422 98.5379V88.8276H34.5067V98.5379H39.3422ZM44.1778 108.248V122.814H92.5333V108.279H87.6978V117.959H49.0133V108.248H44.1778V98.5379H39.3422V108.248H44.1778ZM92.5333 108.248H97.3689V93.6828H92.5333V108.248ZM29.6711 79.1172V74.2621H24.8356V79.1172H29.6711ZM92.5333 54.8414V59.6965H97.3689V54.8414H92.5333ZM82.8622 25.7103V69.4069H87.6978V54.8414H92.5333V49.9862H87.6978V25.7103H82.8622ZM68.3556 20.8552V25.7103V64.5517H73.1911V25.7103H82.8622V20.8552L73.1911 20.8552H68.3556ZM58.6844 16V20.8552L53.8489 20.8552V25.7103V64.5517H58.6844V25.7103V20.8552H68.3556V16H58.6844ZM44.1778 20.8552V25.7103H53.8489V20.8552L44.1778 20.8552Z" fill="black"/>
</svg>
